<?xml version="1.0" standalone="no"?>
<!DOCTYPE svg PUBLIC "-//W3C//DTD SVG 20010904//EN" "http://www.w3.org/TR/2001/REC-SVG-20010904/DTD/svg10.dtd">
<!-- Created using Karbon, part of Calligra: http://www.calligra.org/karbon -->
<svg xmlns="http://www.w3.org/2000/svg" xmlns:xlink="http://www.w3.org/1999/xlink" width="595.277pt" height="841.891pt">
<defs/>
<g id="layer0">
  <path id="shape0" transform="translate(200.809, 176.637)" fill="#231f20" d="M64.4479 80.9713C68.5464 83.4985 72.4648 86.45 76.7853 88.4604C83.9731 91.8062 84.2511 91.4972 87.1454 83.8867C87.5524 82.8133 87.6264 81.5984 87.9305 80.0544C86.0363 79.4625 84.1771 79.1725 82.6059 78.3057C81.1407 77.4992 79.9886 76.0806 77.7034 74.046C81.5588 73.0468 84.4581 72.2984 88.9816 71.1266C85.2162 69.0148 82.7429 67.6314 79.8946 66.0322C82.1959 65.6049 84.1881 65.2367 86.7434 64.7621C87.0134 61.4906 88.4735 57.5439 87.1964 55.2475C85.9423 52.9943 81.8988 52.4184 79.4226 49.9685C80.9457 50.2625 82.4699 50.5604 84.4381 50.9447L84.4381 34.7244C83.821 34.4736 83.2 34.2188 82.5829 33.968C80.3907 38.9721 78.3945 44.0866 75.9412 48.9502C74.027 52.7394 71.5387 56.2196 69.3035 59.8323C68.7884 59.5815 68.2724 59.3307 67.7573 59.0798C69.4525 53.833 71.1517 48.582 72.9999 42.8556C66.3392 40.1128 59.9315 37.4632 53.5098 34.8538C52.9977 34.6462 52.0836 34.4305 51.8686 34.6853C47.6021 39.7406 43.4337 35.0455 38.9182 34.3994C39.0112 35.4969 39.0822 36.3426 39.2612 38.5096C37.035 34.897 34.5857 32.4591 33.9607 29.5949C32.5225 23.0388 28.3351 21.1216 22.7204 19.6639C16.7788 18.12 11.0792 15.4714 5.40258 12.9945C3.48838 12.1558 1.96821 10.353 0 8.7819C10.3521 2.44851 167.081 -3.33511 176.288 2.26492C174.526 3.7497 173.162 5.52842 171.393 6.28887C159.872 11.2228 148.223 15.8316 136.732 20.8357C134.947 21.6122 133.436 23.6498 132.351 25.4606C129.606 30.0253 127.174 34.7947 124.618 39.4817C124.063 39.2229 123.513 38.9651 122.958 38.7062C122.794 37.2285 122.626 35.7547 122.231 32.2826C120.259 34.7836 118.622 36.0015 118.161 37.5887C116.208 44.2862 114.578 51.0861 112.879 57.8619C111.863 61.929 110.797 65.9931 110.058 70.1194C109.867 71.1939 110.84 72.487 111.273 73.6819C109.137 76.9464 107.25 80.4306 104.815 83.4403C93.6231 97.2929 74.203 96.0469 64.4479 80.9713"/>
  <path id="shape1" transform="translate(204.66, 229.652)" fill="#231f20" d="M50.0153 31.0989C49.5784 31.391 49.1406 31.6831 48.6997 31.9752C58.5366 49.4357 68.3695 66.8932 78.9322 85.6437C80.6857 78.3614 80.3538 73.5205 76.6209 68.875C72.4623 63.7002 68.9474 57.98 65.1166 52.5241C60.0981 45.3704 55.0497 38.2406 50.0153 31.0989M83.4038 84.4594C93.5806 66.2741 103.756 48.0929 113.937 29.9067C103.464 42.5552 94.4084 56.1298 84.7664 69.2449C81.1855 74.1087 81.0416 78.7582 83.4038 84.4594M114.718 10.0506C115.73 7.32115 116.744 4.58768 118.444 0C125.063 8.24028 130.911 15.6392 136.922 22.8975C138.105 24.3271 139.809 25.4406 141.468 26.2889C148.516 29.8917 155.644 33.3419 162.398 38.1001C153.628 36.2698 144.857 34.4355 135.512 32.4846C133.232 41.7766 130.725 50.5263 129.029 59.4395C128.07 64.4987 125.718 66.3599 121.017 66.628C116.83 66.8663 112.684 67.8123 107.732 68.564C108.962 74.8055 109.942 80.6164 111.293 86.3325C112.137 89.9114 111.321 92.1464 108.275 94.2877C100.464 99.7706 92.8269 105.527 85.3212 111.441C82.4901 113.673 80.4827 113.51 77.7296 111.344C70.5289 105.674 63.3001 99.977 55.6705 94.9616C51.3869 92.1464 50.7581 89.2175 52.0816 84.584C53.5262 79.5218 54.272 74.2453 55.4276 68.548C50.0943 67.7655 45.5637 66.9092 40.9991 66.4885C37.2423 66.1416 35.3089 64.6073 34.4422 60.5729C32.4898 51.4723 29.9826 42.5003 27.4724 32.5664C18.3222 34.4634 9.38006 36.3166 0.441861 38.1669C0.292908 37.808 0.148953 37.4461 0 37.0872C6.43998 33.8872 12.844 30.6154 19.3259 27.5201C23.2307 25.6549 25.637 22.9753 28.0972 18.9917C32.2399 12.2896 38.5859 7.03305 44.9079 0.187415C46.5204 5.10905 47.5871 8.35692 48.6377 11.5739C48.5198 11.3715 48.4378 11.1841 48.3088 11.0405C48.1959 10.9189 48.0319 10.8491 47.888 10.7594C47.9769 12.5708 47.3721 14.9613 48.2658 16.1027C59.0095 29.8488 69.974 43.4115 80.9086 56.9981C81.0765 57.2045 81.6194 57.0878 82.4351 57.1656C93.2287 43.5321 104.245 29.7631 114.992 15.7678C115.855 14.6423 114.855 11.9946 114.718 10.0506"/>
  <path id="shape2" transform="translate(242.908, 113.545)" fill="#231f20" d="M22.0147 0.483889C18.6843 3.542 16.1654 5.85624 13.6425 8.17049C13.7841 8.36467 13.9247 8.55985 14.0664 8.75403C18.0676 6.49754 22.0699 4.24603 26.2008 1.91983C29.0722 11.2047 21.167 19.1362 8.74637 19.0386C8.9623 22.6016 7.98508 27.1335 9.75472 29.3084C11.2452 31.1436 16.0087 30.8409 19.1865 30.4127C23.3565 29.8491 27.5898 28.682 31.4263 26.9194C34.0195 25.7255 36.9813 23.4968 38.0138 20.9685C40.2886 15.3741 41.4546 9.30272 43.392 2.26139C47.8532 1.58923 53.4986 0.200086 59.1791 0.00988765C66.9587 -0.24703 72.2124 4.52983 75.7708 11.1848C82.9498 24.6171 83.9581 39.5303 85.7388 54.9851C56.9706 50.9511 28.7236 50.5229 0.582115 55.7788C-0.790813 45.1944 -0.358948 43.2257 8.87994 40.542C17.8959 37.924 27.417 37.1423 36.7071 35.5042C38.4808 35.1936 40.2183 34.6638 43.2233 33.9329C35.3613 30.0622 19.1272 32.7777 2.30053 39.7324C1.00193 25.0642 10.1946 5.84031 22.0147 0.483889"/>
 </g>
</svg>
